<svg xmlns="http://www.w3.org/2000/svg" xmlns:xlink="http://www.w3.org/1999/xlink" preserveAspectRatio="xMidYMid" width="23" height="27" viewBox="0 0 23 27">
  <defs>
    <style>
      .cls-1 {
        fill: #49c29d;
        fill-rule: evenodd;
      }
    </style>
  </defs>
  <path d="M22.995,15.571 C22.995,21.877 17.848,26.992 11.501,26.992 C5.152,26.992 0.006,21.877 0.006,15.571 C0.006,9.612 4.598,4.727 10.456,4.202 L10.456,2.073 L9.411,2.073 L9.411,-0.004 L13.591,-0.004 L13.591,2.073 L12.546,2.073 L12.546,4.202 C14.751,4.399 16.768,5.220 18.437,6.479 L20.726,4.200 L22.943,6.403 L20.653,8.681 C22.116,10.597 22.995,12.979 22.995,15.571 ZM11.501,6.226 C6.315,6.226 2.096,10.418 2.096,15.571 C2.096,20.724 6.315,24.915 11.501,24.915 C16.688,24.915 20.906,20.724 20.906,15.571 C20.906,10.418 16.688,6.226 11.501,6.226 ZM12.546,17.360 L12.546,18.686 L10.456,18.686 L10.456,17.360 C9.834,16.999 9.411,16.338 9.411,15.571 C9.411,14.804 9.834,14.141 10.456,13.782 L10.456,9.341 L12.546,9.341 L12.546,13.782 C13.169,14.141 13.591,14.804 13.591,15.571 C13.591,16.338 13.169,16.999 12.546,17.360 Z" class="cls-1"/>
</svg>
