<svg xmlns="http://www.w3.org/2000/svg" xmlns:xlink="http://www.w3.org/1999/xlink" preserveAspectRatio="xMidYMid" width="49.997" height="49.954" viewBox="0 0 36 35.969">
  <defs>
    <style>
      .cls-1 {
        fill: #d2d2d2;
        fill-rule: evenodd;
      }
    </style>
  </defs>
  <path d="M35.884,20.128 C34.593,30.536 24.697,37.558 14.397,35.660 C11.256,35.082 8.464,33.734 6.163,31.862 C5.944,31.684 5.908,31.365 6.074,31.139 C6.307,30.822 6.757,30.773 7.065,31.019 C9.188,32.714 11.750,33.933 14.624,34.462 C24.496,36.281 33.969,29.312 34.738,19.159 C35.302,11.711 29.528,3.726 22.205,1.791 C12.800,-0.694 3.426,4.996 1.213,14.037 C1.143,14.323 0.865,14.508 0.571,14.454 L0.433,14.429 C0.132,14.373 -0.069,14.079 0.003,13.785 C2.357,4.079 12.404,-2.039 22.492,0.605 C31.201,2.888 36.978,11.316 35.884,20.128 ZM1.238,23.446 C1.584,23.446 1.864,23.722 1.864,24.063 C1.864,24.403 1.584,24.679 1.238,24.679 C0.893,24.679 0.613,24.403 0.613,24.063 C0.613,23.722 0.893,23.446 1.238,23.446 ZM2.030,25.261 C2.375,25.261 2.656,25.537 2.656,25.878 C2.656,26.218 2.375,26.494 2.030,26.494 C1.684,26.494 1.404,26.218 1.404,25.878 C1.404,25.537 1.684,25.261 2.030,25.261 ZM3.367,27.439 C3.713,27.439 3.993,27.715 3.993,28.055 C3.993,28.396 3.713,28.672 3.367,28.672 C3.021,28.672 2.741,28.396 2.741,28.055 C2.741,27.715 3.021,27.439 3.367,27.439 ZM4.936,29.374 C5.282,29.374 5.562,29.650 5.562,29.991 C5.562,30.331 5.282,30.607 4.936,30.607 C4.591,30.607 4.310,30.331 4.310,29.991 C4.310,29.650 4.591,29.374 4.936,29.374 Z" class="cls-1"/>
</svg>
