<svg xmlns="http://www.w3.org/2000/svg" xmlns:xlink="http://www.w3.org/1999/xlink" preserveAspectRatio="xMidYMid" width="23" height="32" viewBox="0 0 23 32">
  <defs>
    <style>
      .cls-1 {
        fill: #49c29d;
      }

      .cls-1, .cls-2 {
        fill-rule: evenodd;
      }

      .cls-2 {
        fill: #bec3c2;
      }
    </style>
  </defs>
  <g>
    <path d="M13.939,24.178 L5.576,24.178 L5.576,22.755 L11.848,22.755 L18.818,22.755 L18.818,24.178 L13.939,24.178 ZM16.704,11.382 L18.112,11.382 L18.112,12.823 L16.704,12.823 L16.704,11.382 ZM13.915,11.382 L15.324,11.382 L15.324,12.823 L13.915,12.823 L13.915,11.382 ZM11.184,11.382 L12.535,11.382 L12.535,12.823 L11.184,12.823 L11.184,11.382 ZM8.366,11.382 L9.775,11.382 L9.775,12.823 L8.366,12.823 L8.366,11.382 ZM5.577,11.382 L6.986,11.382 L6.986,12.823 L5.577,12.823 L5.577,11.382 ZM18.802,16.323 L4.887,16.323 L4.887,15.676 L18.802,15.676 L18.802,16.323 Z" class="cls-1"/>
    <path d="M19.515,32.000 L3.485,32.000 C1.560,32.000 -0.000,30.408 -0.000,28.444 L-0.000,6.400 C-0.000,4.436 1.560,2.844 3.485,2.844 L4.977,2.844 C4.919,3.073 4.879,3.308 4.879,3.555 C4.879,3.906 4.879,4.121 4.879,4.266 L3.485,4.266 C3.485,4.266 1.394,4.400 1.394,6.400 C1.394,8.400 1.394,29.155 1.394,29.155 C1.394,29.155 1.437,30.578 4.182,30.578 C6.926,30.578 20.212,30.578 20.212,30.578 C20.212,30.578 21.606,29.955 21.606,28.444 C21.606,26.933 21.606,5.689 21.606,5.689 C21.606,5.689 21.127,4.266 19.515,4.266 C17.903,4.266 16.030,4.266 16.030,4.266 C16.030,4.206 16.030,4.141 16.030,4.048 C15.822,4.175 15.593,4.266 15.333,4.266 L8.364,4.266 C7.594,4.266 6.970,3.630 6.970,2.844 C6.970,2.059 7.594,1.422 8.364,1.422 L9.061,1.422 C9.061,0.637 9.685,-0.000 10.455,-0.000 L13.242,-0.000 C14.012,-0.000 14.636,0.637 14.636,1.422 L15.333,1.422 C16.103,1.422 16.727,2.059 16.727,2.844 L19.515,2.844 C21.440,2.844 23.000,4.436 23.000,6.400 L23.000,28.444 C23.000,30.408 21.440,32.000 19.515,32.000 Z" class="cls-2"/>
  </g>
</svg>
