<svg xmlns="http://www.w3.org/2000/svg" xmlns:xlink="http://www.w3.org/1999/xlink" preserveAspectRatio="xMidYMid" width="30" height="27" viewBox="0 0 30 27">
  <defs>
    <style>
      .cls-1 {
        fill: #fff;
        fill-rule: evenodd;
      }
    </style>
  </defs>
  <path d="M28.500,15.000 L1.500,15.000 C0.672,15.000 -0.000,14.328 -0.000,13.500 C-0.000,12.672 0.672,12.000 1.500,12.000 L28.500,12.000 C29.328,12.000 30.000,12.672 30.000,13.500 C30.000,14.328 29.328,15.000 28.500,15.000 ZM28.500,3.000 L1.500,3.000 C0.672,3.000 -0.000,2.328 -0.000,1.500 C-0.000,0.672 0.672,-0.000 1.500,-0.000 L28.500,-0.000 C29.328,-0.000 30.000,0.672 30.000,1.500 C30.000,2.328 29.328,3.000 28.500,3.000 ZM1.500,24.000 L28.500,24.000 C29.328,24.000 30.000,24.672 30.000,25.500 C30.000,26.328 29.328,27.000 28.500,27.000 L1.500,27.000 C0.672,27.000 -0.000,26.328 -0.000,25.500 C-0.000,24.672 0.672,24.000 1.500,24.000 Z" class="cls-1"/>
</svg>
