<svg xmlns="http://www.w3.org/2000/svg" xmlns:xlink="http://www.w3.org/1999/xlink" preserveAspectRatio="xMidYMid" width="23" height="29.156" viewBox="0 0 23 29.156">
  <defs>
    <style>
      .cls-1 {
        fill: #bec3c2;
      }

      .cls-1, .cls-2 {
        fill-rule: evenodd;
      }

      .cls-2 {
        fill: #49c29d;
      }
    </style>
  </defs>
  <g>
    <path d="M18.030,0.711 C18.030,0.464 17.990,0.229 17.932,0.000 L19.515,0.000 C21.440,0.000 23.000,1.592 23.000,3.556 L23.000,25.600 C23.000,27.564 21.440,29.156 19.515,29.156 L3.485,29.156 C1.560,29.156 -0.000,27.564 -0.000,25.600 L-0.000,3.556 C-0.000,1.592 1.560,0.000 3.485,0.000 L4.977,0.000 C4.919,0.229 4.879,0.464 4.879,0.711 C4.879,2.282 4.879,1.422 4.879,1.422 L3.485,1.422 C3.485,1.422 1.394,1.556 1.394,3.556 C1.394,5.556 1.394,26.311 1.394,26.311 C1.394,26.311 1.437,27.734 4.182,27.734 C6.926,27.734 20.212,27.734 20.212,27.734 C20.212,27.734 21.606,27.111 21.606,25.600 C21.606,24.089 21.606,2.845 21.606,2.845 C21.606,2.845 21.127,1.422 19.515,1.422 C17.903,1.422 18.030,1.422 18.030,1.422 C18.030,1.422 18.030,2.282 18.030,0.711 Z" class="cls-1"/>
    <path d="M17.626,10.893 C17.293,14.103 14.694,16.613 11.500,16.613 C8.306,16.613 5.707,14.103 5.374,10.893 C4.816,10.586 4.423,9.998 4.423,9.299 C4.423,8.289 5.215,7.470 6.192,7.470 C7.169,7.470 7.962,8.289 7.962,9.299 C7.962,10.277 7.214,11.059 6.280,11.109 C6.696,13.710 8.866,15.699 11.500,15.699 C14.134,15.699 16.304,13.710 16.720,11.109 C15.786,11.059 15.038,10.277 15.038,9.299 C15.038,8.289 15.831,7.470 16.808,7.470 C17.785,7.470 18.577,8.289 18.577,9.299 C18.577,9.998 18.184,10.586 17.626,10.893 Z" class="cls-2"/>
  </g>
</svg>
